<svg width="34" height="34" viewBox="0 0 34 34" fill="none" xmlns="http://www.w3.org/2000/svg">
<path d="M5.48014 6.05291C2.77953 8.51659 0.742225 14.7233 1.0265 17.0449C1.31078 19.3665 4.4378 18.8453 4.4378 17.0449C4.4378 15.2445 5.22476 11.8776 7.18578 9.36944C9.66432 6.19943 11.7816 5.01059 16.2352 4.44202C20.6888 3.87344 25.4773 7.23038 25.332 7.6638L21.9681 11.0277C21.492 11.7103 21.5449 12.0347 22.5366 12.4491H30.4963C31.3553 12.4029 31.6985 12.208 31.8229 11.2646V3.44705C31.8229 2.54685 31.1122 1.9783 30.4963 2.54685C29.8804 3.1154 27.7957 5.29484 27.7957 5.29484C26.9902 4.72628 22.7735 0.367386 15.9983 1.0781C9.22309 1.78881 7.43683 4.26787 5.48014 6.05291Z" fill="white" stroke="#246944" stroke-width="1.5"/>
<path d="M28.6694 27.9471C31.37 25.4834 33.4073 19.2767 33.123 16.9551C32.8388 14.6335 29.7117 15.1547 29.7117 16.9551C29.7117 18.7555 28.9248 22.1224 26.9638 24.6306C24.4852 27.8006 22.368 28.9894 17.9143 29.558C13.4607 30.1266 8.67224 26.7696 8.81756 26.3362L12.1815 22.9723C12.6575 22.2897 12.6046 21.9653 11.6129 21.5509H3.65323C2.79425 21.5971 2.45104 21.792 2.32662 22.7354V30.5529C2.32662 31.4532 3.03731 32.0217 3.65323 31.4531C4.26916 30.8846 6.35384 28.7052 6.35384 28.7052C7.15929 29.2737 11.376 33.6326 18.1512 32.9219C24.9265 32.2112 26.7127 29.7321 28.6694 27.9471Z" fill="white" stroke="#246944" stroke-width="1.5"/>
</svg>
