<svg width="47" height="47" viewBox="0 0 47 47" fill="none" xmlns="http://www.w3.org/2000/svg">
<mask id="path-1-inside-1_3_73" fill="white">
<path d="M27 0C28.6569 0 30 1.34315 30 3V18H44C45.6569 18 47 19.3431 47 21V27C47 28.6569 45.6569 30 44 30H30V44C30 45.6569 28.6569 47 27 47H21C19.3431 47 18 45.6569 18 44V30H3C1.34315 30 0 28.6569 0 27V21C0 19.3431 1.34315 18 3 18H18V3C18 1.34315 19.3431 0 21 0H27Z"/>
</mask>
<path d="M27 0C28.6569 0 30 1.34315 30 3V18H44C45.6569 18 47 19.3431 47 21V27C47 28.6569 45.6569 30 44 30H30V44C30 45.6569 28.6569 47 27 47H21C19.3431 47 18 45.6569 18 44V30H3C1.34315 30 0 28.6569 0 27V21C0 19.3431 1.34315 18 3 18H18V3C18 1.34315 19.3431 0 21 0H27Z" fill="white"/>
<path d="M30 18H28.5V19.5H30V18ZM30 30V28.5H28.5V30H30ZM18 30H19.5V28.5H18V30ZM18 18V19.5H19.5V18H18ZM27 0V1.5C27.8284 1.5 28.5 2.17157 28.5 3H30H31.5C31.5 0.514719 29.4853 -1.5 27 -1.5V0ZM30 3H28.5V18H30H31.5V3H30ZM30 18V19.5H44V18V16.5H30V18ZM44 18V19.5C44.8284 19.5 45.5 20.1716 45.5 21H47H48.5C48.5 18.5147 46.4853 16.5 44 16.5V18ZM47 21H45.5V27H47H48.5V21H47ZM47 27H45.5C45.5 27.8284 44.8284 28.5 44 28.5V30V31.5C46.4853 31.5 48.5 29.4853 48.5 27H47ZM44 30V28.5H30V30V31.5H44V30ZM30 30H28.5V44H30H31.5V30H30ZM30 44H28.5C28.5 44.8284 27.8284 45.5 27 45.5V47V48.5C29.4853 48.5 31.5 46.4853 31.5 44H30ZM27 47V45.5H21V47V48.5H27V47ZM21 47V45.5C20.1716 45.5 19.5 44.8284 19.5 44H18H16.5C16.5 46.4853 18.5147 48.5 21 48.5V47ZM18 44H19.5V30H18H16.5V44H18ZM18 30V28.5H3V30V31.5H18V30ZM3 30V28.5C2.17157 28.5 1.5 27.8284 1.5 27H0H-1.5C-1.5 29.4853 0.514719 31.5 3 31.5V30ZM0 27H1.5V21H0H-1.5V27H0ZM0 21H1.5C1.5 20.1716 2.17157 19.5 3 19.5V18V16.5C0.514719 16.5 -1.5 18.5147 -1.5 21H0ZM3 18V19.5H18V18V16.5H3V18ZM18 18H19.5V3H18H16.5V18H18ZM18 3H19.5C19.5 2.17157 20.1716 1.5 21 1.5V0V-1.5C18.5147 -1.5 16.5 0.514719 16.5 3H18ZM21 0V1.5H27V0V-1.5H21V0Z" fill="#246944" mask="url(#path-1-inside-1_3_73)"/>
</svg>
