<svg width="114" height="114" viewBox="0 0 114 114" fill="none" xmlns="http://www.w3.org/2000/svg">
<path d="M114 57C114 88.4802 88.4802 114 57 114C25.5198 114 0 88.4802 0 57C0 25.5198 25.5198 0 57 0C88.4802 0 114 25.5198 114 57Z" fill="#D9D9D9"/>
<path d="M16.1532 85.5288H14.0784L17.8561 74.7984H20.2557L24.0386 85.5288H21.9638L19.0978 76.999H19.014L16.1532 85.5288ZM16.2213 81.3215H21.88V82.8829H16.2213V81.3215Z" fill="#236844"/>
<path d="M29.8035 88.7144C29.1223 88.7144 28.5373 88.6218 28.0483 88.4367C27.5592 88.2551 27.1663 88.0106 26.8694 87.7032C26.5725 87.3958 26.3664 87.0552 26.2511 86.6815L27.9592 86.2676C28.036 86.4248 28.1478 86.5802 28.2945 86.7339C28.4412 86.8911 28.6386 87.0203 28.8866 87.1216C29.1381 87.2264 29.4542 87.2788 29.8349 87.2788C30.3728 87.2788 30.8182 87.1478 31.171 86.8858C31.5238 86.6274 31.7002 86.2012 31.7002 85.6074V84.0827H31.6058C31.508 84.2783 31.3648 84.4792 31.1762 84.6853C30.9911 84.8914 30.7448 85.0643 30.4374 85.204C30.1336 85.3437 29.7511 85.4135 29.29 85.4135C28.6717 85.4135 28.1111 85.2686 27.6081 84.9787C27.1086 84.6853 26.7104 84.2486 26.4135 83.6688C26.1201 83.0855 25.9734 82.3555 25.9734 81.4787C25.9734 80.595 26.1201 79.8492 26.4135 79.2415C26.7104 78.6302 27.1104 78.1674 27.6134 77.853C28.1164 77.5352 28.677 77.3762 29.2952 77.3762C29.7668 77.3762 30.1545 77.4566 30.4584 77.6172C30.7658 77.7744 31.0103 77.9648 31.1919 78.1883C31.3736 78.4084 31.5115 78.6162 31.6058 78.8118H31.7106V77.481H33.5811V85.6598C33.5811 86.3479 33.4169 86.9173 33.0886 87.3679C32.7603 87.8185 32.3114 88.1555 31.7421 88.3791C31.1727 88.6026 30.5265 88.7144 29.8035 88.7144ZM29.8192 83.9255C30.2209 83.9255 30.5632 83.8277 30.8461 83.6321C31.1291 83.4365 31.3439 83.1553 31.4906 82.7886C31.6373 82.4218 31.7106 81.9817 31.7106 81.4682C31.7106 80.9618 31.6373 80.5182 31.4906 80.1374C31.3474 79.7567 31.1343 79.4615 30.8514 79.252C30.5719 79.0389 30.2279 78.9323 29.8192 78.9323C29.3965 78.9323 29.0438 79.0424 28.7608 79.2624C28.4779 79.4825 28.2648 79.7846 28.1216 80.1689C27.9784 80.5496 27.9068 80.9827 27.9068 81.4682C27.9068 81.9607 27.9784 82.3921 28.1216 82.7624C28.2683 83.1291 28.4831 83.4156 28.7661 83.6217C29.0525 83.8242 29.4035 83.9255 29.8192 83.9255Z" fill="#236844"/>
<path d="M36.7053 85.5288V77.481H38.5443V78.8223H38.6282C38.7749 78.3578 39.0264 77.9997 39.3827 77.7482C39.7424 77.4932 40.1529 77.3658 40.6139 77.3658C40.7187 77.3658 40.8357 77.371 40.965 77.3815C41.0977 77.3885 41.2077 77.4007 41.2951 77.4181V79.1629C41.2147 79.1349 41.0872 79.1105 40.9126 79.0895C40.7414 79.0651 40.5755 79.0529 40.4148 79.0529C40.069 79.0529 39.7582 79.128 39.4822 79.2781C39.2098 79.4249 38.9949 79.6292 38.8378 79.8912C38.6806 80.1531 38.602 80.4553 38.602 80.7976V85.5288H36.7053Z" fill="#236844"/>
<path d="M46.9145 85.686C46.1286 85.686 45.4475 85.5131 44.8711 85.1673C44.2948 84.8215 43.8477 84.3377 43.5298 83.716C43.2155 83.0942 43.0583 82.3677 43.0583 81.5364C43.0583 80.705 43.2155 79.9767 43.5298 79.3515C43.8477 78.7263 44.2948 78.2407 44.8711 77.8949C45.4475 77.5491 46.1286 77.3762 46.9145 77.3762C47.7004 77.3762 48.3816 77.5491 48.9579 77.8949C49.5343 78.2407 49.9796 78.7263 50.294 79.3515C50.6118 79.9767 50.7708 80.705 50.7708 81.5364C50.7708 82.3677 50.6118 83.0942 50.294 83.716C49.9796 84.3377 49.5343 84.8215 48.9579 85.1673C48.3816 85.5131 47.7004 85.686 46.9145 85.686ZM46.925 84.1666C47.3511 84.1666 47.7074 84.0495 47.9939 83.8155C48.2803 83.578 48.4933 83.2601 48.6331 82.8619C48.7763 82.4637 48.8479 82.0201 48.8479 81.5311C48.8479 81.0386 48.7763 80.5933 48.6331 80.1951C48.4933 79.7934 48.2803 79.4738 47.9939 79.2362C47.7074 78.9987 47.3511 78.88 46.925 78.88C46.4884 78.88 46.1251 78.9987 45.8352 79.2362C45.5488 79.4738 45.334 79.7934 45.1907 80.1951C45.051 80.5933 44.9812 81.0386 44.9812 81.5311C44.9812 82.0201 45.051 82.4637 45.1907 82.8619C45.334 83.2601 45.5488 83.578 45.8352 83.8155C46.1251 84.0495 46.4884 84.1666 46.925 84.1666Z" fill="#236844"/>
<path d="M62.4628 74.7984V85.5288H60.7337L55.6777 78.2198H55.5886V85.5288H53.6448V74.7984H55.3843L60.4351 82.1127H60.5294V74.7984H62.4628Z" fill="#236844"/>
<path d="M69.1878 85.686C68.4018 85.686 67.7207 85.5131 67.1444 85.1673C66.568 84.8215 66.1209 84.3377 65.8031 83.716C65.4887 83.0942 65.3315 82.3677 65.3315 81.5364C65.3315 80.705 65.4887 79.9767 65.8031 79.3515C66.1209 78.7263 66.568 78.2407 67.1444 77.8949C67.7207 77.5491 68.4018 77.3762 69.1878 77.3762C69.9737 77.3762 70.6548 77.5491 71.2311 77.8949C71.8075 78.2407 72.2528 78.7263 72.5672 79.3515C72.8851 79.9767 73.044 80.705 73.044 81.5364C73.044 82.3677 72.8851 83.0942 72.5672 83.716C72.2528 84.3377 71.8075 84.8215 71.2311 85.1673C70.6548 85.5131 69.9737 85.686 69.1878 85.686ZM69.1982 84.1666C69.6244 84.1666 69.9807 84.0495 70.2671 83.8155C70.5535 83.578 70.7666 83.2601 70.9063 82.8619C71.0495 82.4637 71.1211 82.0201 71.1211 81.5311C71.1211 81.0386 71.0495 80.5933 70.9063 80.1951C70.7666 79.7934 70.5535 79.4738 70.2671 79.2362C69.9807 78.9987 69.6244 78.88 69.1982 78.88C68.7616 78.88 68.3983 78.9987 68.1084 79.2362C67.822 79.4738 67.6072 79.7934 67.464 80.1951C67.3243 80.5933 67.2544 81.0386 67.2544 81.5311C67.2544 82.0201 67.3243 82.4637 67.464 82.8619C67.6072 83.2601 67.822 83.578 68.1084 83.8155C68.3983 84.0495 68.7616 84.1666 69.1982 84.1666Z" fill="#236844"/>
<path d="M79.8528 77.481V78.9481H75.2264V77.481H79.8528ZM76.3686 75.5529H78.2653V83.1082C78.2653 83.3632 78.3037 83.5588 78.3805 83.695C78.4609 83.8277 78.5657 83.9186 78.6949 83.9675C78.8241 84.0164 78.9673 84.0408 79.1245 84.0408C79.2433 84.0408 79.3516 84.0321 79.4494 84.0146C79.5507 83.9972 79.6275 83.9814 79.6799 83.9675L79.9995 85.4502C79.8982 85.4852 79.7533 85.5236 79.5646 85.5655C79.3795 85.6074 79.1525 85.6319 78.8835 85.6388C78.4085 85.6528 77.9806 85.5812 77.5998 85.424C77.2191 85.2633 76.917 85.0153 76.6934 84.68C76.4734 84.3447 76.3651 83.9255 76.3686 83.4226V75.5529Z" fill="#236844"/>
<path d="M86.0958 85.686C85.2889 85.686 84.5921 85.5183 84.0052 85.183C83.4219 84.8442 82.9731 84.3657 82.6587 83.7474C82.3443 83.1257 82.1871 82.3939 82.1871 81.5521C82.1871 80.7242 82.3443 79.9977 82.6587 79.3725C82.9766 78.7437 83.4202 78.2547 83.9895 77.9054C84.5589 77.5526 85.2278 77.3762 85.9962 77.3762C86.4922 77.3762 86.9603 77.4566 87.4004 77.6172C87.844 77.7744 88.2352 78.0189 88.574 78.3508C88.9164 78.6826 89.1853 79.1053 89.3809 79.6187C89.5765 80.1287 89.6743 80.7365 89.6743 81.442V82.0236H83.0779V80.7452H87.8562C87.8527 80.3819 87.7741 80.0588 87.6205 79.7759C87.4668 79.4895 87.2519 79.2642 86.976 79.1C86.7036 78.9358 86.3857 78.8538 86.0224 78.8538C85.6347 78.8538 85.2941 78.9481 85.0007 79.1367C84.7073 79.3218 84.4785 79.5663 84.3144 79.8702C84.1537 80.1706 84.0716 80.5007 84.0681 80.8605V81.9765C84.0681 82.4445 84.1537 82.8462 84.3248 83.1815C84.496 83.5134 84.7353 83.7684 85.0426 83.9465C85.35 84.1211 85.7098 84.2085 86.122 84.2085C86.3979 84.2085 86.6477 84.1701 86.8712 84.0932C87.0948 84.0129 87.2886 83.8959 87.4528 83.7422C87.617 83.5885 87.741 83.3981 87.8248 83.1711L89.5957 83.3702C89.484 83.8382 89.2709 84.2469 88.9565 84.5962C88.6456 84.942 88.2474 85.211 87.7619 85.4031C87.2764 85.5917 86.721 85.686 86.0958 85.686Z" fill="#236844"/>
<path d="M98.8199 79.6082L97.0909 79.7969C97.042 79.6222 96.9564 79.458 96.8342 79.3043C96.7154 79.1507 96.5548 79.0267 96.3522 78.9323C96.1496 78.838 95.9016 78.7909 95.6082 78.7909C95.2135 78.7909 94.8816 78.8765 94.6127 79.0476C94.3472 79.2188 94.2162 79.4406 94.2197 79.713C94.2162 79.9471 94.3018 80.1374 94.4764 80.2841C94.6546 80.4308 94.948 80.5513 95.3567 80.6456L96.7294 80.9391C97.4909 81.1032 98.0567 81.3635 98.427 81.7197C98.8007 82.076 98.9894 82.5423 98.9928 83.1187C98.9894 83.6251 98.8409 84.0723 98.5475 84.46C98.2576 84.8442 97.8541 85.1446 97.3372 85.3612C96.8202 85.5777 96.2264 85.686 95.5558 85.686C94.5707 85.686 93.7778 85.4799 93.1771 85.0677C92.5763 84.6521 92.2182 84.074 92.103 83.3335L93.9525 83.1553C94.0363 83.5186 94.2145 83.7928 94.4869 83.9779C94.7594 84.1631 95.1139 84.2556 95.5505 84.2556C96.0011 84.2556 96.3626 84.1631 96.6351 83.9779C96.911 83.7928 97.049 83.564 97.049 83.2916C97.049 83.061 96.9599 82.8707 96.7818 82.7205C96.6071 82.5703 96.3347 82.455 95.9644 82.3747L94.5917 82.0865C93.8198 81.9258 93.2487 81.6551 92.8784 81.2744C92.5081 80.8902 92.3248 80.4046 92.3283 79.8178C92.3248 79.3218 92.4592 78.8922 92.7317 78.5289C93.0076 78.1621 93.3901 77.8792 93.8791 77.6801C94.3716 77.4775 94.9393 77.3762 95.582 77.3762C96.5251 77.3762 97.2673 77.5771 97.8087 77.9788C98.3536 78.3805 98.6907 78.9236 98.8199 79.6082Z" fill="#236844"/>
<path d="M60.3746 61.092C60.3746 61.092 58.2189 61.7886 56.9166 62.4176C55.9638 62.8777 55.4258 63.1441 54.5536 63.7432C53.5274 64.4481 52.938 64.8682 52.133 65.818C51.4588 66.6134 50.6921 68.0657 50.6921 68.0657C50.6921 68.0657 52.3284 68.4857 53.4009 68.5844C55.2213 68.7521 56.2875 68.6476 58.0693 68.2386C59.9391 67.8094 61.0159 67.443 62.6224 66.3943C63.9168 65.5493 64.5508 64.9126 65.5617 63.7432C66.6681 62.4633 67.2175 61.6491 67.9247 60.1122C68.3057 59.2842 68.4649 58.7937 68.7316 57.9221C68.9424 57.2331 69.1926 56.1355 69.1926 56.1355C69.1926 56.1355 66.9837 56.4516 65.5617 56.5966C63.542 56.8025 62.3823 56.6411 60.3746 56.9424C58.6412 57.2025 57.6396 57.3172 55.9945 57.9221C54.9454 58.3079 54.3652 58.5674 53.4009 59.1325C52.4957 59.6629 51.9808 59.9758 51.2108 60.6886C50.5551 61.2956 50.2243 61.6853 49.7124 62.4176C49.1412 63.2347 48.786 63.7097 48.502 64.6653C48.1873 65.7245 48.3291 67.4894 48.3291 67.4894C48.3291 67.4894 49.5864 66.145 50.4616 65.3569C51.1983 64.6936 52.4212 63.7432 52.4212 63.7432C52.4212 63.7432 53.6666 62.8355 54.5536 62.4176C55.5581 61.9444 56.1818 61.8085 57.2624 61.5531C58.4581 61.2705 60.3746 61.092 60.3746 61.092Z" fill="#236844"/>
<path d="M41.9403 56.4301C41.9403 56.4301 40.5607 53.4544 40.1536 51.4159C39.6027 48.6569 39.676 46.9843 40.1536 44.2117C40.5427 41.9529 40.9664 40.696 41.9403 38.6212C43.1579 36.0272 44.0261 34.5575 46.0899 32.5696C48.3405 30.4017 50.1206 29.6482 52.9016 28.471C53.0301 28.4166 53.1612 28.3611 53.2942 28.3047C54.9014 27.6229 56.1315 27.3203 57.4847 26.9874C58.2787 26.7921 59.1151 26.5864 60.095 26.2875C60.9759 26.0188 61.74 25.8181 62.4603 25.629C63.9167 25.2466 65.1939 24.9113 66.8958 24.155C68.9216 23.2549 71.8523 21.3886 71.8523 21.3886C71.8523 21.3886 72.3595 20.9852 72.6016 21.3886C72.8436 21.792 73.3872 23.5712 73.6966 25.0195C74.4365 28.4823 74.1761 30.6501 73.7725 34.0101C73.7477 34.2168 73.7223 34.4281 73.6966 34.6444C73.4288 36.8975 73.2381 38.1724 72.6016 40.3502L72.5631 40.4817L72.5371 40.5711C72.015 42.3596 71.6956 43.4539 70.7573 45.1338C69.5866 47.2299 68.6646 48.294 66.8958 49.9174C65.1895 51.4835 64.0312 52.153 61.9969 53.2602C60.3951 54.132 59.4407 54.5249 57.732 55.1621C56.659 55.5623 55.8333 55.7807 54.9618 56.0112C54.3323 56.1778 53.6787 56.3507 52.8907 56.603C52.527 56.7194 52.2056 56.795 51.9023 56.8663C51.3013 57.0077 50.7713 57.1323 50.1243 57.5251C49.2934 58.0295 48.8911 58.4406 48.28 59.1965C47.5267 60.1283 47.208 60.7653 46.8392 61.9053C46.5851 62.6907 46.5193 63.1589 46.4357 63.9801C46.3892 64.4378 46.4127 64.7983 46.4362 65.1586C46.4599 65.5209 46.4835 65.8828 46.4357 66.3431C46.428 66.4176 46.4207 66.4907 46.4134 66.5626C46.35 67.1932 46.2969 67.7217 46.0899 68.1874C45.8594 68.7061 44.7644 68.879 44.188 68.1874C43.7144 67.619 43.6993 66.2609 43.684 64.8765C43.6807 64.5763 43.6773 64.275 43.6693 63.9801C43.6115 61.8555 43.8051 60.6531 44.188 58.5625C44.5362 56.6615 44.8037 55.5981 45.456 53.7789C46.1425 51.8641 46.6219 50.8105 47.6461 49.0529C48.702 47.2408 49.5263 46.2492 50.7563 44.7697C50.9044 44.5915 51.0584 44.4063 51.2194 44.2117C53.3195 41.673 54.7833 40.3166 57.0248 38.2397C57.252 38.0291 57.4873 37.8111 57.732 37.5838C59.93 35.5415 63.553 32.5696 63.553 32.5696C63.553 32.5696 59.2686 34.4976 56.8099 36.2005C54.4957 37.8034 53.3332 38.9524 51.3735 40.8894L51.2194 41.0418C50.9592 41.2989 50.7113 41.5419 50.4737 41.7749C48.743 43.4715 47.554 44.6372 46.0899 46.8628C44.9833 48.5452 44.4747 49.5702 43.6693 51.4159C42.8409 53.3143 41.9403 56.4301 41.9403 56.4301Z" fill="#317E3E"/>
</svg>
