<svg width="42" height="50" viewBox="0 0 42 50" fill="none" xmlns="http://www.w3.org/2000/svg">
<path d="M42 20.6413C42 32.0411 23.5485 38.1764 21 50C17.8398 38.3768 0 32.0411 0 20.6413C0 9.24142 9.40202 0 21 0C32.598 0 42 9.24142 42 20.6413Z" fill="white"/>
<path d="M22.9978 30.1941C22.9978 30.1941 21.7011 30.606 20.9177 30.9779C20.3446 31.25 20.0209 31.4074 19.4963 31.7617C18.879 32.1785 18.5245 32.4268 18.0402 32.9884C17.6347 33.4587 17.1735 34.3174 17.1735 34.3174C17.1735 34.3174 18.1578 34.5657 18.8029 34.6241C19.8979 34.7232 20.5393 34.6614 21.6111 34.4196C22.7358 34.1659 23.3836 33.9492 24.3499 33.3292C25.1285 32.8296 25.5099 32.4531 26.118 31.7617C26.7835 31.0049 27.114 30.5235 27.5394 29.6148C27.7686 29.1253 27.8644 28.8353 28.0248 28.3199C28.1516 27.9125 28.3021 27.2636 28.3021 27.2636C28.3021 27.2636 26.9734 27.4504 26.118 27.5362C24.9031 27.658 24.2055 27.5625 22.9978 27.7406C21.9551 27.8944 21.3526 27.9622 20.363 28.3199C19.732 28.548 19.383 28.7014 18.8029 29.0355C18.2584 29.3492 17.9486 29.5342 17.4855 29.9556C17.0911 30.3145 16.8921 30.5449 16.5841 30.9779C16.2405 31.461 16.0269 31.7418 15.8561 32.3069C15.6668 32.9331 15.7521 33.9766 15.7521 33.9766C15.7521 33.9766 16.5083 33.1817 17.0348 32.7158C17.478 32.3236 18.2136 31.7617 18.2136 31.7617C18.2136 31.7617 18.9627 31.225 19.4963 30.9779C20.1005 30.6981 20.4757 30.6178 21.1257 30.4668C21.845 30.2997 22.9978 30.1941 22.9978 30.1941Z" fill="#236844"/>
<path d="M11.909 27.4377C11.909 27.4377 11.0791 25.6784 10.8343 24.4731C10.5028 22.8418 10.547 21.8528 10.8343 20.2135C11.0683 18.878 11.3231 18.1349 11.909 16.9081C12.6414 15.3744 13.1637 14.5055 14.4051 13.3301C15.7589 12.0483 16.8297 11.6028 18.5025 10.9068C18.5799 10.8746 18.6587 10.8418 18.7387 10.8084C19.7055 10.4053 20.4454 10.2264 21.2594 10.0296C21.7371 9.91411 22.2402 9.79247 22.8296 9.61574C23.3595 9.45685 23.8192 9.33823 24.2524 9.22641C25.1285 9.00031 25.8968 8.80203 26.9205 8.35491C28.1391 7.82272 29.902 6.71924 29.902 6.71924C29.902 6.71924 30.2071 6.48071 30.3527 6.71924C30.4983 6.95778 30.8253 8.00971 31.0114 8.86606C31.4565 10.9134 31.2998 12.1952 31.0571 14.1818C31.0422 14.304 31.0269 14.4289 31.0114 14.5568C30.8503 15.889 30.7356 16.6428 30.3527 17.9304L30.3296 18.0082L30.3139 18.061C29.9999 19.1185 29.8077 19.7655 29.2433 20.7588C28.5391 21.9981 27.9845 22.6272 26.9205 23.5871C25.8941 24.5131 25.1974 24.9089 23.9737 25.5635C23.0102 26.079 22.436 26.3113 21.4082 26.6881C20.7627 26.9246 20.2661 27.0538 19.7418 27.1901C19.3631 27.2886 18.97 27.3908 18.496 27.54C18.2772 27.6088 18.0839 27.6535 17.9015 27.6957C17.5399 27.7793 17.2211 27.853 16.8319 28.0852C16.3321 28.3834 16.0901 28.6265 15.7225 29.0734C15.2694 29.6243 15.0777 30.001 14.8558 30.675C14.703 31.1394 14.6634 31.4162 14.6131 31.9018C14.5851 32.1724 14.5993 32.3855 14.6134 32.5985C14.6276 32.8127 14.6418 33.0268 14.6131 33.2989C14.6085 33.3429 14.6041 33.3862 14.5997 33.4286C14.5616 33.8015 14.5296 34.114 14.4051 34.3893C14.2665 34.696 13.6077 34.7983 13.2611 34.3893C12.9761 34.0533 12.9671 33.2503 12.9579 32.4317C12.9559 32.2543 12.9539 32.0761 12.949 31.9018C12.9142 30.6456 13.0307 29.9346 13.2611 28.6986C13.4705 27.5746 13.6314 26.9458 14.0238 25.8702C14.4368 24.7381 14.7251 24.1151 15.3412 23.076C15.9763 22.0045 16.4722 21.4182 17.2121 20.5435C17.3012 20.4381 17.3938 20.3286 17.4906 20.2135C18.754 18.7125 19.6345 17.9106 20.9828 16.6825C21.1195 16.558 21.261 16.4292 21.4082 16.2947C22.7304 15.0872 24.9097 13.3301 24.9097 13.3301C24.9097 13.3301 22.3325 14.47 20.8535 15.4769C19.4615 16.4246 18.7622 17.104 17.5834 18.2492L17.4906 18.3393C17.3341 18.4913 17.185 18.635 17.0421 18.7727C16.001 19.7759 15.2858 20.4651 14.4051 21.781C13.7394 22.7758 13.4335 23.3818 12.949 24.4731C12.4507 25.5955 11.909 27.4377 11.909 27.4377Z" fill="#317E3E"/>
</svg>
